<svg version="1.1" xmlns="http://www.w3.org/2000/svg" xmlns:xlink="http://www.w3.org/1999/xlink" width="623.60001" height="436.28732" viewBox="0,0,623.60001,436.28732"><g transform="translate(71.80001,38.14366)"><g data-paper-data="{&quot;isPaintingLayer&quot;:true}" fill-rule="nonzero" stroke="none" stroke-linecap="butt" stroke-linejoin="miter" stroke-miterlimit="10" stroke-dasharray="" stroke-dashoffset="0" style="mix-blend-mode: normal"><path d="M-71.80001,398.14366v-436.28732h623.60001v436.28732z" fill="#000000" stroke-width="0"/><text transform="translate(102.60001,122.3) scale(0.8467,0.8467)" font-size="40" xml:space="preserve" fill="#ffffff" fill-rule="nonzero" stroke="none" stroke-width="1" stroke-linecap="butt" stroke-linejoin="miter" stroke-miterlimit="10" stroke-dasharray="" stroke-dashoffset="0" font-family="Sans Serif" font-weight="normal" text-anchor="start" style="mix-blend-mode: normal"><tspan x="0" dy="0">サーバーと接続中</tspan></text><path d="M39.60001,228.3v-97h52v97z" fill="#b3b3b3" stroke-width="0"/><path d="M45.60001,168.3v-27h17v27z" fill="#000000" stroke-width="0"/><path d="M69.60001,168.30001v-27h17v27z" fill="#000000" stroke-width="0"/><path d="M45.60001,200.30001v-27h17v27z" fill="#000000" stroke-width="0"/><path d="M69.60001,200.30001v-27h17v27z" fill="#000000" stroke-width="0"/><path d="M32.60001,229.3v-18h67v18z" fill="#b3b3b3" stroke-width="0"/><path d="M423.10001,226.8l-52,0v-91l52,0z" fill="#b3b3b3" stroke-width="0"/><path d="M418.74286,218.15715h-43.28571l0,-74h43.28571z" fill="#000000" stroke-width="0"/><path d="M393.60001,222.8c0,-1.933 1.567,-3.5 3.5,-3.5c1.933,0 3.5,1.567 3.5,3.5c0,1.933 -1.567,3.5 -3.5,3.5c-1.933,0 -3.5,-1.567 -3.5,-3.5z" fill="#000000" stroke-width="0"/></g></g></svg>